# xmcd CD database file
#
# Track frame offsets:
#	150
#	7807
#	23490
#	53532
#	64960
#	74772
#	95635
#	114910
#	138777
#	165947
#	183857
#	200102
#
# Disc length: 2926 seconds
#
# Revision: 1
# Processed by: cddbd v1.5.2PL0 Copyright (c) Steve Scherf et al.
# Submitted via: CDex 1.70
#
DISCID=960b6c0c
DTITLE=Hanno Herzler - Der aufregende Mondflug (5)
DYEAR=2002
DGENRE=Audio Book
TTITLE0=Stufe 1
TTITLE1=Katastrophe beim Start
TTITLE2=Die Hexe von Cleveland
TTITLE3=Abgewiesen!
TTITLE4=Der alarmierende Funkspruch
TTITLE5=Im alten Steinbruch
TTITLE6=Wiedersehen mit der Zicke
TTITLE7=Ein Projekt von enormer Bedeutung
TTITLE8="Kommando Tunichtgut"
TTITLE9=Wo steckt Lisa?
TTITLE10=Auf dem Weg zum Mond!
TTITLE11=Der blinde Passagier
EXTD=YEAR: 2002
EXTT0=
EXTT1=
EXTT2=
EXTT3=
EXTT4=
EXTT5=
EXTT6=
EXTT7=
EXTT8=
EXTT9=
EXTT10=
EXTT11=
PLAYORDER=
